<?xml version="1.0" encoding="UTF-8"?>
<svg id="_Слой_2" data-name="Слой 2" xmlns="http://www.w3.org/2000/svg" viewBox="0 0 60.44 75.24">
  <defs>
    <style>
      .cls-1 {
        fill: #7a7f84;
      }
      .cls-2 {
        fill: #54b5e6;
      }
      .cls-3 {
        fill: #e6e6e6;
      }
    </style>
  </defs>
  <g id="_Слой_1-2" data-name="Слой 1">
    <g>
      <path class="cls-2" d="M6.88,65.68c-4-4.9-4.63-10.36-4.75-11.75-1.16-13.09,10.47-21.86,11-22.25,11.09-8.1,28.92-7.11,37.75,3.25,6.76,7.94,5.59,18.27,5.5,19-.19,1.5-1.24,8.55-6.75,14-10.97,10.86-33.38,9.22-42.75-2.25Z">
        <animateTransform
          attributeName="transform"
          type="translate"
          values="0,0; 0,-2; 0,0"
          dur="3s"
          repeatCount="indefinite"/>
      </path>
      <path class="cls-3" d="M10.16,50.17c.33-6.47,5.45-10.35,6.75-11.34,6.89-5.22,17.34-5.1,24.25,0,1.15.85,7.61,5.62,7.25,12.75-.27,5.26-4.09,8.7-5.25,9.75-7.17,6.47-20.38,7.3-27.75.5-.81-.75-5.58-5.15-5.25-11.66Z">
        <animateTransform
          attributeName="transform"
          type="translate"
          values="0,0; 0,-2; 0,0"
          dur="3s"
          repeatCount="indefinite"/>
      </path>
      <path class="cls-1" d="M35.47,45.39c-1.58-1.38-3.64-2.07-6.19-2.07s-4.53.69-6.13,2.07c-1.62,1.37-2.42,3.17-2.42,5.38s.8,4.01,2.42,5.38c1.61,1.38,3.65,2.07,6.13,2.07s4.62-.69,6.19-2.07c1.58-1.37,2.38-3.17,2.38-5.38s-.8-4.01-2.38-5.38Z">
        <animate
          attributeName="opacity"
          values="1; 0.7; 1"
          dur="2s"
          repeatCount="indefinite"/>
      </path>
      <path class="cls-1" d="M60.44,30.18c-1.19-.74-2.42-1.43-3.7-2.07-7.68-3.88-16.6-5.85-26.52-5.85s-18.84,1.97-26.52,5.85c-1.28.65-2.51,1.34-3.7,2.07,3.4-5.41,8.36-12.13,15.44-18.78C20.66,6.5,25.77,2.77,30.22,0c4.45,2.77,9.56,6.5,14.78,11.4,7.08,6.65,12.04,13.37,15.44,18.78Z">
        <animateTransform
          attributeName="transform"
          type="translate"
          values="0,0; 0,-2; 0,0"
          dur="3s"
          repeatCount="indefinite"/>
      </path>
    </g>
  </g>
</svg>
