<?xml version="1.0" encoding="UTF-8"?>
<svg id="_Слой_2" data-name="Слой 2" xmlns="http://www.w3.org/2000/svg" viewBox="0 0 631.99 109.14">
  <defs>
    <style>
      .cls-1 {
        fill: #7a7f84;
      }

      .cls-2 {
        fill: #54b5e6;
      }
    </style>
  </defs>
  <g id="_Слой_1-2" data-name="Слой 1">
    <g>
      <path class="cls-2" d="M81.19,49.47c-3.62-5.88-8.71-10.46-15.22-13.76-6.51-3.29-14.07-4.93-22.66-4.93s-16.16,1.64-22.67,4.93c-6.51,3.29-11.58,7.88-15.22,13.76-3.62,5.86-5.43,12.71-5.43,20.49s1.8,14.63,5.43,20.49c3.64,5.88,8.71,10.46,15.22,13.76,6.51,3.29,14.07,4.93,22.67,4.93s16.15-1.64,22.66-4.93,11.59-7.88,15.22-13.76c3.62-5.86,5.44-12.71,5.44-20.49s-1.82-14.63-5.44-20.49ZM69.45,84.47c-2.45,4.09-5.89,7.25-10.31,9.47-4.44,2.21-9.71,3.32-15.82,3.32s-11.31-1.11-15.77-3.32c-4.47-2.23-7.92-5.38-10.37-9.47-2.45-4.1-3.68-8.93-3.68-14.51s1.23-10.4,3.68-14.51c2.45-4.09,5.91-7.25,10.37-9.47,4.47-2.21,9.73-3.32,15.77-3.32s11.38,1.11,15.82,3.32c4.42,2.23,7.86,5.38,10.31,9.47,2.45,4.1,3.68,8.93,3.68,14.51s-1.23,10.4-3.68,14.51Z"/>
      <path class="cls-2" d="M81.19,49.47c-3.62-5.88-8.71-10.46-15.22-13.76-6.51-3.29-14.07-4.93-22.66-4.93s-16.16,1.64-22.67,4.93c-6.51,3.29-11.58,7.88-15.22,13.76-3.62,5.86-5.43,12.71-5.43,20.49s1.8,14.63,5.43,20.49c3.64,5.88,8.71,10.46,15.22,13.76,6.51,3.29,14.07,4.93,22.67,4.93s16.15-1.64,22.66-4.93,11.59-7.88,15.22-13.76c3.62-5.86,5.44-12.71,5.44-20.49s-1.82-14.63-5.44-20.49ZM69.45,84.47c-2.45,4.09-5.89,7.25-10.31,9.47-4.44,2.21-9.71,3.32-15.82,3.32s-11.31-1.11-15.77-3.32c-4.47-2.23-7.92-5.38-10.37-9.47-2.45-4.1-3.68-8.93-3.68-14.51s1.23-10.4,3.68-14.51c2.45-4.09,5.91-7.25,10.37-9.47,4.47-2.21,9.73-3.32,15.77-3.32s11.38,1.11,15.82,3.32c4.42,2.23,7.86,5.38,10.31,9.47,2.45,4.1,3.68,8.93,3.68,14.51s-1.23,10.4-3.68,14.51Z"/>
      <rect class="cls-2" x="98.02" y="50.31" width="13.1" height="57.42"/>
      <path class="cls-1" d="M110.75,30.33c-1.58-1.38-3.64-2.07-6.19-2.07s-4.53.69-6.13,2.07c-1.62,1.37-2.42,3.17-2.42,5.38s.8,4.01,2.42,5.38c1.61,1.38,3.65,2.07,6.13,2.07s4.62-.69,6.19-2.07c1.58-1.37,2.38-3.17,2.38-5.38s-.8-4.01-2.38-5.38Z"/>
      <path class="cls-1" d="M228.92,73.84c-1.58-1.38-3.64-2.07-6.19-2.07s-4.53.69-6.13,2.07c-1.62,1.37-2.42,3.17-2.42,5.38s.8,4.01,2.42,5.38c1.61,1.38,3.65,2.07,6.13,2.07s4.62-.69,6.19-2.07c1.58-1.37,2.38-3.17,2.38-5.38s-.8-4.01-2.38-5.38Z"/>
      <path class="cls-2" d="M161.89,78.43l24.07-27.71h-15.41l-19.5,23.08-4.07,4.83,4.51,5.25,20.48,23.86h15.8l-25.88-29.3ZM132.36,73.8v10.07h26.4v-10.07h-26.4ZM125.01,30.18v77.55h13.1V30.18h-13.1Z"/>
      <path class="cls-2" d="M253.09,63.57c-2.92-4.47-6.98-7.97-12.18-10.48-5.22-2.53-11.28-3.79-18.19-3.79s-12.98,1.26-18.18,3.79c-5.2,2.51-9.26,6.01-12.19,10.48-2.92,4.47-4.38,9.68-4.38,15.65s1.46,11.13,4.38,15.62c2.93,4.5,6.99,8.01,12.19,10.52,5.2,2.53,11.26,3.77,18.18,3.77s12.98-1.25,18.19-3.77c5.2-2.51,9.26-6.03,12.18-10.52,2.93-4.5,4.39-9.71,4.39-15.62s-1.46-11.19-4.39-15.65ZM241.56,89.66c-1.74,2.92-4.21,5.19-7.4,6.8s-7.01,2.42-11.44,2.42-8.15-.81-11.38-2.42c-3.22-1.61-5.7-3.88-7.46-6.8-1.74-2.92-2.62-6.41-2.62-10.43s.87-7.5,2.62-10.42c1.76-2.92,4.24-5.19,7.46-6.8,3.23-1.62,7.02-2.42,11.38-2.42s8.25.8,11.44,2.42c3.19,1.61,5.65,3.88,7.4,6.8,1.74,2.92,2.62,6.39,2.62,10.42s-.87,7.52-2.62,10.43Z"/>
      <path class="cls-2" d="M326.93,61.75c-1.97-4-4.84-7.07-8.6-9.22-3.77-2.15-8.33-3.23-13.71-3.23-4.83,0-9.2,1.13-13.1,3.38-3.89,2.26-7.08,5.46-9.56,9.62-2.48,4.16-4.03,9.2-4.63,15.11l4.63,2.51c0-3.95.75-7.41,2.27-10.37,1.5-2.95,3.65-5.25,6.44-6.9,2.8-1.64,6.03-2.47,9.73-2.47,5.37,0,9.46,1.53,12.24,4.59,2.78,3.05,4.18,7.58,4.18,13.55v29.41h13.1v-31.53c0-5.64-.99-10.45-2.98-14.45ZM268.86,50.72v57.01h13.1v-57.01h-13.1Z"/>
      <path class="cls-2" d="M404.91,63.57c-2.92-4.47-6.98-7.97-12.19-10.48-5.2-2.53-11.26-3.79-18.18-3.79s-12.98,1.26-18.18,3.79c-5.2,2.51-9.28,6.01-12.19,10.48-2.92,4.47-4.38,9.68-4.38,15.65s1.46,11.13,4.38,15.62,6.99,8.01,12.19,10.52c5.2,2.53,11.26,3.77,18.18,3.77s12.98-1.25,18.18-3.77c5.22-2.51,9.28-6.03,12.19-10.52s4.39-9.71,4.39-15.62-1.47-11.19-4.39-15.65ZM393.37,89.66c-1.74,2.92-4.21,5.19-7.4,6.8-3.2,1.61-7.01,2.42-11.44,2.42s-8.16-.81-11.38-2.42c-3.22-1.61-5.71-3.88-7.46-6.8s-2.62-6.41-2.62-10.43.87-7.5,2.62-10.42,4.24-5.19,7.46-6.8c3.22-1.62,7.02-2.42,11.38-2.42s8.24.8,11.44,2.42c3.19,1.61,5.65,3.88,7.4,6.8,1.74,2.92,2.62,6.39,2.62,10.42s-.87,7.52-2.62,10.43Z"/>
      <path class="cls-2" d="M520.45,61.75c-1.85-4-4.56-7.07-8.1-9.22-3.56-2.15-7.86-3.23-12.9-3.23-4.5,0-8.59,1.13-12.24,3.38-3.67,2.26-6.65,5.46-8.96,9.62-.47.86-.92,1.74-1.29,2.66-1.59,3.59-2.62,7.74-3.1,12.45l4.63,2.51c0-3.95.69-7.41,2.07-10.37,1.37-2.95,3.32-5.25,5.83-6.9,2.53-1.64,5.5-2.47,8.92-2.47,4.84,0,8.51,1.53,11.04,4.59,2.53,3.05,3.77,7.58,3.77,13.55v29.41h13.1v-31.53c0-5.64-.92-10.45-2.77-14.45ZM476.96,64.97c-.35-1.13-.77-2.2-1.23-3.22-1.85-4-4.53-7.07-8.06-9.22-3.52-2.15-7.8-3.23-12.84-3.23-4.57,0-8.68,1.13-12.34,3.38-3.52,2.18-6.44,5.23-8.71,9.19-.09.15-.18.29-.26.44-2.32,4.16-3.77,9.2-4.39,15.11l4.65,2.51c0-3.95.68-7.41,2.06-10.37,1.38-2.95,3.32-5.25,5.85-6.9,2.51-1.64,5.49-2.47,8.92-2.47,4.83,0,8.51,1.53,11.02,4.59,2.53,3.05,3.77,7.58,3.77,13.55v29.41h13.1v-31.53c0-4.21-.51-7.95-1.53-11.23ZM420.68,50.72v57.01h13.1v-57.01h-13.1Z"/>
      <rect class="cls-2" x="536.32" y="50.31" width="13.1" height="57.42"/>
      <path class="cls-1" d="M549.07,30.33c-1.58-1.38-3.65-2.07-6.19-2.07s-4.54.69-6.15,2.07c-1.61,1.37-2.42,3.17-2.42,5.38s.81,4.01,2.42,5.38c1.61,1.38,3.65,2.07,6.15,2.07s4.62-.69,6.19-2.07c1.58-1.37,2.36-3.17,2.36-5.38s-.78-4.01-2.36-5.38Z"/>
      <path class="cls-2" d="M627.6,63.57c-2.92-4.47-6.98-7.97-12.19-10.48-5.2-2.53-11.26-3.79-18.18-3.79s-12.98,1.26-18.18,3.79c-5.2,2.51-9.28,6.01-12.19,10.48-2.92,4.47-4.38,9.68-4.38,15.65s1.46,11.13,4.38,15.62,6.99,8.01,12.19,10.52c5.2,2.53,11.26,3.77,18.18,3.77s12.98-1.25,18.18-3.77c5.22-2.51,9.28-6.03,12.19-10.52s4.39-9.71,4.39-15.62-1.47-11.19-4.39-15.65ZM616.07,89.66c-1.74,2.92-4.21,5.19-7.4,6.8-3.2,1.61-7.01,2.42-11.44,2.42s-8.16-.81-11.38-2.42c-3.22-1.61-5.71-3.88-7.46-6.8s-2.62-6.41-2.62-10.43.87-7.5,2.62-10.42,4.24-5.19,7.46-6.8c3.22-1.62,7.02-2.42,11.38-2.42s8.24.8,11.44,2.42c3.19,1.61,5.65,3.88,7.4,6.8,1.74,2.92,2.62,6.39,2.62,10.42s-.87,7.52-2.62,10.43Z"/>
      <path class="cls-2" d="M618.99,50.17v57.42h13.01v-57.42h-13.01Z"/>
      <path class="cls-1" d="M73.54,30.18c-1.19-.74-2.42-1.43-3.7-2.07-7.68-3.88-16.6-5.85-26.52-5.85s-18.84,1.97-26.52,5.85c-1.28.65-2.51,1.34-3.7,2.07,3.4-5.41,8.36-12.13,15.44-18.78,5.22-4.9,10.33-8.63,14.78-11.4,4.45,2.77,9.56,6.5,14.78,11.4,7.08,6.65,12.04,13.37,15.44,18.78Z"/>
    </g>
  </g>
</svg>